<svg width="100" height="100" fill="none" xmlns="http://www.w3.org/2000/svg"><path fill-rule="evenodd" clip-rule="evenodd" d="M29.237 46.418a18.552 18.552 0 00-.952-.024C18.194 46.394 10 54.584 10 64.672v.03c.003 10.086 8.196 18.273 18.285 18.273h36.572c10.092 0 18.286-8.19 18.286-18.278 0-10.089-8.194-18.279-18.286-18.279h-35.62z" fill="#FFBE3F"/><path fill-rule="evenodd" clip-rule="evenodd" d="M46.962 18c13.66 0 24.752 11.087 24.752 24.742 0 13.657-11.091 24.743-24.752 24.743-13.662 0-24.753-11.087-24.753-24.742C22.21 29.085 33.3 18 46.962 18z" fill="#F3A23A"/><mask id="a" maskUnits="userSpaceOnUse" x="22" y="18" width="50" height="50"><path d="M46.962 18c13.66 0 24.752 11.087 24.752 24.742 0 13.657-11.091 24.743-24.752 24.743-13.662 0-24.753-11.087-24.753-24.742C22.21 29.085 33.3 18 46.962 18z" fill="#fff"/></mask><g mask="url(#a)"><path fill-rule="evenodd" clip-rule="evenodd" d="M28.285 46.417c10.093 0 18.286 8.19 18.286 18.279 0 10.088-8.193 18.278-18.286 18.278C18.194 82.974 10 74.784 10 64.696c0-10.089 8.194-18.279 18.285-18.279z" fill="#FFCF38"/></g><path fill-rule="evenodd" clip-rule="evenodd" d="M64.857 32.709C78.734 32.709 90 43.97 90 57.84c0 13.871-11.266 25.133-25.143 25.133-13.876 0-25.142-11.262-25.142-25.133 0-13.87 11.266-25.132 25.142-25.132z" fill="#F3823A"/><mask id="b" maskUnits="userSpaceOnUse" x="39" y="32" width="51" height="51"><path d="M64.857 32.709C78.734 32.709 90 43.97 90 57.84c0 13.871-11.266 25.133-25.143 25.133-13.876 0-25.142-11.262-25.142-25.133 0-13.87 11.266-25.132 25.142-25.132z" fill="#fff"/></mask><g mask="url(#b)"><path fill-rule="evenodd" clip-rule="evenodd" d="M46.964 18c13.66 0 24.752 11.087 24.752 24.742 0 13.657-11.091 24.743-24.752 24.743-13.662 0-24.753-11.087-24.753-24.742C22.211 29.085 33.302 18 46.964 18z" fill="#F26C32"/></g></svg>